<svg width="16" height="16" viewBox="0 0 16 16" fill="none" xmlns="http://www.w3.org/2000/svg"><path d="M4.4 1.34a5.53 5.53 0 0 1 3.6-1.34c2.69 0 4.92 2 5.17 4.58a3.26 3.26 0 0 1 2.83 3.2c0 1.79-1.5 3.22-3.31 3.22h-2.69a.5.5 0 0 1 0-1h2.69a2.27 2.27 0 0 0 2.31-2.23 2.27 2.27 0 0 0-2.31-2.22h-.5v-.5a4.12 4.12 0 0 0-4.19-4.05c-1.16 0-2.2.46-2.94 1.1-.76.65-1.15 1.44-1.15 2.05v.45l-.45.05a2.72 2.72 0 0 0-2.46 2.67 2.73 2.73 0 0 0 2.78 2.68h2.22a.5.5 0 0 1 0 1h-2.22a3.73 3.73 0 0 1-3.78-3.68 3.7 3.7 0 0 1 2.94-3.6 4.2 4.2 0 0 1 1.47-2.38Z" fill="#000"/><path d="M7.65 15.85c.2.2.5.2.7 0l3-3a.5.5 0 0 0-.7-.7l-2.15 2.14v-8.79a.5.5 0 0 0-1 0v8.8l-2.15-2.15a.5.5 0 0 0-.7.7l3 3Z" fill="#000"/></svg>