<svg width="16" height="16" viewBox="0 0 16 16" fill="none" xmlns="http://www.w3.org/2000/svg"><path d="M11.54 14.01a8.47 8.47 0 0 0 0-12.02l-.71.7a7.48 7.48 0 0 1 0 10.61l.7.71Z" fill="#000"/><path d="M10.12 12.6a6.48 6.48 0 0 0 0-9.2l-.7.71a5.48 5.48 0 0 1 0 7.78l.7.7Z" fill="#000"/><path d="M10.03 8c0 1.24-.5 2.37-1.32 3.18l-.71-.7a3.49 3.49 0 0 0 0-4.95l.7-.71a4.49 4.49 0 0 1 1.33 3.18Zm-3.03-4a.5.5 0 0 0-.81-.39l-2.37 1.89h-2.32a.5.5 0 0 0-.5.5v4c0 .28.22.5.5.5h2.32l2.37 1.89a.5.5 0 0 0 .81-.39v-8Zm-2.69 2.39 1.69-1.35v5.92l-1.69-1.35a.5.5 0 0 0-.31-.11h-2v-3h2a.5.5 0 0 0 .31-.11Z" fill="#000"/></svg>