<svg width="16" height="16" viewBox="0 0 16 16" fill="none" xmlns="http://www.w3.org/2000/svg"><path d="M6.72 3.55a.5.5 0 0 1 .28.45v8a.5.5 0 0 1-.81.39l-2.37-1.89h-2.32a.5.5 0 0 1-.5-.5v-4c0-.28.22-.5.5-.5h2.32l2.37-1.89a.5.5 0 0 1 .53-.06Zm-.72 1.49-1.69 1.35a.5.5 0 0 1-.31.11h-2v3h2a.5.5 0 0 1 .31.11l1.69 1.35v-5.92Zm7.85.61c.2.2.2.5 0 .7l-1.64 1.65 1.64 1.65a.5.5 0 0 1-.7.7l-1.65-1.64-1.65 1.64a.5.5 0 0 1-.7-.7l1.64-1.65-1.64-1.65a.5.5 0 1 1 .7-.7l1.65 1.64 1.65-1.64c.2-.2.5-.2.7 0Z" fill="#000"/></svg>